<svg xmlns="http://www.w3.org/2000/svg" width="25" height="26.43" viewBox="0 0 25 26.43">
  <path id="ic_round-repeat" d="M8.657,8.414H22.878V10.96a.7.7,0,0,0,1.209.5L28.054,7.49a.7.7,0,0,0,0-1.01L24.087,2.513a.711.711,0,0,0-1.209.512V5.57H7.235A1.426,1.426,0,0,0,5.813,6.992v5.688a1.422,1.422,0,1,0,2.844,0ZM22.878,22.635H8.657V20.09a.7.7,0,0,0-1.209-.5L3.481,23.56a.7.7,0,0,0,0,1.01l3.968,3.968a.711.711,0,0,0,1.209-.512V25.479H24.3a1.426,1.426,0,0,0,1.422-1.422V18.369a1.422,1.422,0,0,0-2.844,0Z" transform="translate(-3.268 -2.31)" fill="#fff"/>
</svg>
