<svg xmlns="http://www.w3.org/2000/svg" width="25" height="24.99" viewBox="0 0 25 24.99">
  <g id="eva_shuffle-outline" transform="translate(-4.321 -3.387)">
    <path id="Tracé_4" data-name="Tracé 4" d="M26.192,11.678a1.562,1.562,0,0,0,3.123,0V4.948a1.561,1.561,0,0,0-1.562-1.561H21.039a1.561,1.561,0,1,0,0,3.123h2.951l-7.168,7.167L7.7,4.574a1.561,1.561,0,0,0-2.2,2.2l9.1,9.1L4.783,25.7A1.568,1.568,0,1,0,7,27.916L26.192,8.727Z" transform="translate(0 0)" fill="#fff"/>
    <path id="Tracé_5" data-name="Tracé 5" d="M16.826,11.454a.833.833,0,0,0-.833.833v1.592l-2.317-2.325a.837.837,0,0,0-1.183,1.183L14.8,15.054H13.234a.833.833,0,0,0,0,1.667h3.592a.833.833,0,0,0,.833-.925V12.287a.833.833,0,0,0-.833-.833Z" transform="translate(11.657 11.652)" fill="#fff"/>
  </g>
</svg>
