<svg id="Page-1" xmlns="http://www.w3.org/2000/svg" width="20" height="20" viewBox="0 0 20 20">
  <g id="Dribbble-Light-Preview" transform="translate(-220 -2519)">
    <g id="icons" transform="translate(56 160)">
      <path id="sun_star-_1268_" data-name="sun_star-[#1268]" d="M166.929,2363.34a1,1,0,1,1,1.414,0,.994.994,0,0,1-1.414,0m14.142,11.32a1,1,0,1,1-1.414,0,.994.994,0,0,1,1.414,0m-12.728,0a1,1,0,1,1-1.414,0,.994.994,0,0,1,1.414,0m12.728-12.73a1,1,0,1,1-1.414,0,.994.994,0,0,1,1.414,0M166,2369a1,1,0,1,1-1-1,1,1,0,0,1,1,1m18,0a1,1,0,1,1-1-1,1,1,0,0,1,1,1m-9,9a1,1,0,1,1-1-1,1,1,0,0,1,1,1m-2-18a1,1,0,1,1,1,1,1,1,0,0,1-1-1m1,14a5,5,0,1,1,5-5,5,5,0,0,1-5,5m0-12a7,7,0,1,0,7,7,7,7,0,0,0-7-7" fill-rule="evenodd"/>
    </g>
  </g>
</svg>
